#N canvas 225 118 1215 692 12;
#X obj 278 693 *~ 1;
#X obj 78 254 bng 19 250 50 0 empty empty empty 0 -10 0 12 #fcfcfc #000000 #000000;
#X obj 277 652 clip~ -1.5 1.5;
#N canvas 552 123 904 730 drum1 0;
#X msg 116 132 tempo \$1 permin;
#X obj 36 136 bng 19 250 50 0 empty empty empty 17 7 0 10 #dfdfdf #000000 #000000;
#X obj 38 20 bng 19 250 50 0 empty empty empty 0 -10 0 12 #fcfcfc #000000 #000000;
#X msg 76 51 stop;
#X obj 36 105 metro;
#X msg 74 169 -1;
#X obj 147 108 * 4;
#X msg 147 74 120;
#X obj 77 19 bng 19 250 50 0 empty empty empty 0 -10 0 12 #fcfcfc #000000 #000000;
#X obj 93 249 + 1;
#X floatatom 40 290 5 0 0 0 - - - 0;
#X obj 133 259 select 1;
#X obj 40 250 int 0;
#X obj 40 332 select 0 1 2 3 4 5 6 7 8 9 10 11 12 13 14 15;
#X obj 133 232 >= 15;
#X obj 37 -16 inlet;
#X obj 16 399 bng 19 250 50 0 empty empty 0 0 -10 0 12 #fcfcfc #000000 #000000;
#X obj 39 399 bng 19 250 50 0 empty empty 1 0 -10 0 12 #fcfcfc #000000 #000000;
#X obj 62 399 bng 19 250 50 0 empty empty 2 0 -10 0 12 #fcfcfc #000000 #000000;
#X obj 85 399 bng 19 250 50 0 empty empty 3 0 -10 0 12 #fcfcfc #000000 #000000;
#X obj 117 399 bng 19 250 50 0 empty empty 4 0 -10 0 12 #fcfcfc #000000 #000000;
#X obj 140 399 bng 19 250 50 0 empty empty 5 0 -10 0 12 #fcfcfc #000000 #000000;
#X obj 163 399 bng 19 250 50 0 empty empty 6 0 -10 0 12 #fcfcfc #000000 #000000;
#X obj 186 399 bng 19 250 50 0 empty empty 7 0 -10 0 12 #fcfcfc #000000 #000000;
#X obj 215 399 bng 19 250 50 0 empty empty 8 0 -10 0 12 #fcfcfc #000000 #000000;
#X obj 238 399 bng 19 250 50 0 empty empty 9 0 -10 0 12 #fcfcfc #000000 #000000;
#X obj 261 399 bng 19 250 50 0 empty empty 10 0 -10 0 12 #fcfcfc #000000 #000000;
#X obj 284 399 bng 19 250 50 0 empty empty 11 0 -10 0 12 #fcfcfc #000000 #000000;
#X obj 316 399 bng 19 250 50 0 empty empty 12 0 -10 0 12 #fcfcfc #000000 #000000;
#X obj 339 399 bng 19 250 50 0 empty empty 13 0 -10 0 12 #fcfcfc #000000 #000000;
#X obj 362 399 bng 19 250 50 0 empty empty 14 0 -10 0 12 #fcfcfc #000000 #000000;
#X obj 385 399 bng 19 250 50 0 empty empty 15 0 -10 0 12 #fcfcfc #000000 #000000;
#X obj 45 500 s playKick1;
#X obj 149 501 s playSnare;
#X obj 259 502 s playHihat;
#X connect 0 0 4 0;
#X connect 1 0 12 0;
#X connect 2 0 4 0;
#X connect 2 0 7 0;
#X connect 3 0 4 0;
#X connect 3 0 5 0;
#X connect 4 0 1 0;
#X connect 5 0 12 0;
#X connect 6 0 0 0;
#X connect 7 0 6 0;
#X connect 8 0 3 0;
#X connect 9 0 12 1;
#X connect 10 0 13 0;
#X connect 11 0 3 0;
#X connect 12 0 9 0;
#X connect 12 0 10 0;
#X connect 12 0 14 0;
#X connect 13 0 16 0;
#X connect 13 1 17 0;
#X connect 13 2 18 0;
#X connect 13 3 19 0;
#X connect 13 4 20 0;
#X connect 13 5 21 0;
#X connect 13 6 22 0;
#X connect 13 7 23 0;
#X connect 13 8 24 0;
#X connect 13 9 25 0;
#X connect 13 10 26 0;
#X connect 13 11 27 0;
#X connect 13 12 28 0;
#X connect 13 13 29 0;
#X connect 13 14 30 0;
#X connect 13 15 31 0;
#X connect 14 0 11 0;
#X connect 15 0 2 0;
#X connect 16 0 32 0;
#X connect 18 0 34 0;
#X connect 20 0 33 0;
#X connect 22 0 34 0;
#X connect 23 0 33 0;
#X connect 23 0 34 0;
#X connect 24 0 34 0;
#X connect 25 0 34 0;
#X connect 25 0 33 0;
#X connect 26 0 32 0;
#X connect 26 0 34 0;
#X connect 28 0 33 0;
#X connect 28 0 34 0;
#X connect 30 0 34 0;
#X restore 78 302 pd drum1;
#X obj 147 253 bng 19 250 50 0 empty empty empty 0 -10 0 12 #fcfcfc #000000 #000000;
#X obj 221 253 bng 19 250 50 0 empty empty empty 0 -10 0 12 #fcfcfc #000000 #000000;
#X obj 291 252 bng 19 250 50 0 empty empty empty 0 -10 0 12 #fcfcfc #000000 #000000;
#X obj 361 254 bng 19 250 50 0 empty empty empty 0 -10 0 12 #fcfcfc #000000 #000000;
#X obj 431 254 bng 19 250 50 0 empty empty empty 0 -10 0 12 #fcfcfc #000000 #000000;
#X obj 502 253 bng 19 250 50 0 empty empty empty 0 -10 0 12 #fcfcfc #000000 #000000;
#X obj 571 254 bng 19 250 50 0 empty empty empty 0 -10 0 12 #fcfcfc #000000 #000000;
#X obj 336 35 inlet;
#X obj 338 73 unpack 0 0;
#X obj 294 166 select 1 2 3 4 5 6 7 8;
#X obj 837 336 * 0.01;
#X obj 277 734 outlet~;
#N canvas 377 149 946 741 snare 0;
#X obj 228 119 noise~;
#X obj 266 228 *~;
#X obj 390 125 line~;
#X obj 55 150 osc~ 1;
#X obj 155 152 line~;
#X obj 56 48 bng 19 250 50 0 empty empty empty 0 -10 0 12 #fcfcfc #000000 #000000;
#X obj 91 226 *~;
#X obj 55 189 pow~ 3;
#X obj 275 3 bng 19 250 50 0 empty empty empty 0 -10 0 12 #fcfcfc #000000 #000000;
#X obj 451 114 noise~;
#X obj 509 228 *~;
#X obj 624 177 line~;
#X obj 543 44 bng 19 250 50 0 empty empty empty 0 -10 0 12 #fcfcfc #000000 #000000;
#X obj 506 119 line;
#X obj 454 156 bp~ 0 2;
#X msg 625 86 1 \, 0 200;
#X obj 318 51 bng 19 250 50 0 empty empty empty 0 -10 0 12 #fcfcfc #000000 #000000;
#X obj 252 160 bp~ 0 1;
#X obj 283 120 line;
#X obj 267 299 *~ 1;
#X obj 275 -28 inlet;
#X obj 703 115 noise~;
#X obj 761 229 *~;
#X obj 813 169 line~;
#X obj 808 43 bng 19 250 50 0 empty empty empty 0 -10 0 12 #fcfcfc #000000 #000000;
#X msg 815 91 1 \, 0 200;
#X obj 129 299 *~ 1;
#X obj 448 299 *~ 1;
#X obj 612 300 *~ 1;
#X obj 706 157 bp~ 1000 1;
#X msg 509 86 8000 \, 3000 150;
#X msg 278 86 3000 \, 1000 180;
#X msg 390 83 1 \, 0 180;
#X obj 55 117 vline~;
#X msg 156 116 1 \, 0 180;
#X msg 55 83 300 0 \, 50 80 0;
#X obj 272 551 outlet~;
#X obj 272 461 clip~ -1 1;
#X obj 271 419 *~ 0.7;
#X obj 272 504 *~ 0.5;
#X connect 0 0 17 0;
#X connect 1 0 19 0;
#X connect 2 0 1 1;
#X connect 3 0 7 0;
#X connect 4 0 6 1;
#X connect 5 0 35 0;
#X connect 5 0 34 0;
#X connect 6 0 26 0;
#X connect 7 0 6 0;
#X connect 8 0 5 0;
#X connect 8 0 16 0;
#X connect 8 0 24 0;
#X connect 8 0 12 0;
#X connect 9 0 14 0;
#X connect 10 0 27 0;
#X connect 11 0 10 1;
#X connect 12 0 15 0;
#X connect 12 0 30 0;
#X connect 13 0 14 1;
#X connect 14 0 10 0;
#X connect 15 0 11 0;
#X connect 16 0 32 0;
#X connect 16 0 31 0;
#X connect 17 0 1 0;
#X connect 18 0 17 1;
#X connect 19 0 38 0;
#X connect 20 0 8 0;
#X connect 21 0 29 0;
#X connect 22 0 28 0;
#X connect 23 0 22 1;
#X connect 24 0 25 0;
#X connect 25 0 23 0;
#X connect 26 0 38 0;
#X connect 27 0 38 0;
#X connect 28 0 38 0;
#X connect 29 0 22 0;
#X connect 30 0 13 0;
#X connect 31 0 18 0;
#X connect 32 0 2 0;
#X connect 33 0 3 0;
#X connect 34 0 4 0;
#X connect 35 0 33 0;
#X connect 37 0 39 0;
#X connect 38 0 37 0;
#X connect 39 0 36 0;
#X restore 360 431 pd snare;
#N canvas 563 123 999 751 hihat 0;
#X obj 73 215 noise~;
#X obj 111 324 *~;
#X obj 235 221 line~;
#X obj 404 79 bng 19 250 50 0 empty empty empty 0 -10 0 12 #fcfcfc #000000 #000000;
#X obj 304 216 noise~;
#X obj 362 325 *~;
#X obj 493 273 line~;
#X obj 430 145 bng 19 250 50 0 empty empty empty 0 -10 0 12 #fcfcfc #000000 #000000;
#X obj 359 221 line;
#X obj 307 258 bp~ 0 2;
#X obj 163 147 bng 19 250 50 0 empty empty empty 0 -10 0 12 #fcfcfc #000000 #000000;
#X obj 97 256 bp~ 0 1;
#X obj 128 216 line;
#X obj 157 393 *~ 1;
#X obj 356 408 *~ 0.7;
#X obj 405 42 inlet;
#X obj 589 188 noise~;
#X obj 621 300 *~;
#X obj 688 246 line~;
#X obj 628 127 bng 19 250 50 0 empty empty empty 0 -10 0 12 #fcfcfc #000000 #000000;
#X obj 551 399 *~ 0.7;
#X obj 592 230 lop~ 2000;
#X msg 123 182 20000 \, 11000 80;
#X msg 250 180 1 \, 0 80;
#X msg 689 161 1 \, 0 80;
#X msg 494 188 1 \, 0 50;
#X msg 362 188 20000 \, 8000 50;
#X obj 375 621 outlet~;
#X obj 368 495 *~ 1;
#X obj 372 535 clip~ -1 1;
#X obj 372 576 *~ 0.5;
#X connect 0 0 11 0;
#X connect 1 0 13 0;
#X connect 2 0 1 1;
#X connect 3 0 7 0;
#X connect 3 0 10 0;
#X connect 3 0 19 0;
#X connect 4 0 9 0;
#X connect 5 0 14 0;
#X connect 6 0 5 1;
#X connect 7 0 25 0;
#X connect 7 0 26 0;
#X connect 8 0 9 1;
#X connect 9 0 5 0;
#X connect 10 0 23 0;
#X connect 10 0 22 0;
#X connect 11 0 1 0;
#X connect 12 0 11 1;
#X connect 13 0 28 0;
#X connect 14 0 28 0;
#X connect 15 0 3 0;
#X connect 16 0 21 0;
#X connect 17 0 20 0;
#X connect 18 0 17 1;
#X connect 19 0 24 0;
#X connect 20 0 28 0;
#X connect 21 0 17 0;
#X connect 22 0 12 0;
#X connect 23 0 2 0;
#X connect 24 0 18 0;
#X connect 25 0 6 0;
#X connect 26 0 8 0;
#X connect 28 0 29 0;
#X connect 29 0 30 0;
#X connect 30 0 27 0;
#X restore 460 429 pd hihat;
#X obj 175 391 r playKick1;
#N canvas 110 48 724 762 kick1 1;
#X obj 131 363 bng 19 250 50 0 empty empty empty 0 -10 0 12 #fcfcfc #000000 #000000;
#X obj 228 215 vline~;
#X obj 228 255 osc~;
#X obj 230 303 *~;
#X obj 340 215 vline~;
#X obj 340 239 pow~ 1.5;
#X obj 134 455 vline~;
#X obj 541 281 vline~;
#X obj 512 327 *~;
#X obj 455 248 noise~;
#X obj 455 281 lop~ 300;
#X obj 277 143 bng 19 250 50 0 empty empty empty 0 -10 0 12 #fcfcfc #000000 #000000;
#X obj 176 93 bng 19 250 50 0 empty empty empty 0 -10 0 12 #fcfcfc #000000 #000000;
#X msg 551 178 0.1 1 \, 0 100 1;
#X msg 134 410 0.3 0 \, 0 1 0;
#X obj 177 27 inlet;
#X obj 233 659 outlet~;
#X obj 543 145 bng 19 250 50 0 empty empty empty 0 -10 0 12 #fcfcfc #000000 #000000;
#X obj 231 503 *~ 1;
#X obj 232 572 clip~ -0.3 0.3;
#X msg 343 173 1 1 \, 0.9 50 1 \, 0 400 50;
#X msg 227 176 300 0 \, 50 40 0;
#X obj 233 615 *~ 2.5;
#X connect 0 0 14 0;
#X connect 1 0 2 0;
#X connect 2 0 3 0;
#X connect 3 0 18 0;
#X connect 4 0 5 0;
#X connect 5 0 3 1;
#X connect 6 0 18 0;
#X connect 7 0 8 1;
#X connect 8 0 18 0;
#X connect 9 0 10 0;
#X connect 10 0 8 0;
#X connect 11 0 20 0;
#X connect 11 0 21 0;
#X connect 12 0 0 0;
#X connect 12 0 11 0;
#X connect 12 0 17 0;
#X connect 13 0 7 0;
#X connect 14 0 6 0;
#X connect 15 0 12 0;
#X connect 17 0 13 0;
#X connect 18 0 19 0;
#X connect 19 0 22 0;
#X connect 20 0 4 0;
#X connect 21 0 1 0;
#X connect 22 0 16 0;
#X restore 175 431 pd kick1;
#X obj 360 467 *~ 0.5;
#X obj 266 389 r playKick2;
#X obj 360 389 r playSnare;
#X obj 460 392 r playHihat;
#N canvas 110 183 724 762 kick2 0;
#X obj 131 363 bng 19 250 50 0 empty empty empty 0 -10 0 12 #fcfcfc #000000 #000000;
#X obj 228 215 vline~;
#X obj 228 255 osc~;
#X obj 230 303 *~;
#X obj 340 215 vline~;
#X obj 340 239 pow~ 1.5;
#X obj 134 455 vline~;
#X obj 541 281 vline~;
#X obj 512 327 *~;
#X obj 455 248 noise~;
#X obj 455 281 lop~ 300;
#X obj 277 143 bng 19 250 50 0 empty empty empty 0 -10 0 12 #fcfcfc #000000 #000000;
#X obj 176 93 bng 19 250 50 0 empty empty empty 0 -10 0 12 #fcfcfc #000000 #000000;
#X msg 551 178 0.1 1 \, 0 100 1;
#X msg 134 410 0.3 0 \, 0 1 0;
#X obj 177 27 inlet;
#X obj 233 659 outlet~;
#X obj 543 145 bng 19 250 50 0 empty empty empty 0 -10 0 12 #fcfcfc #000000 #000000;
#X obj 231 503 *~ 1;
#X obj 233 615 *~ 1;
#X obj 232 572 clip~ -0.3 0.3;
#X msg 227 176 300 0 \, 45 40 0;
#X msg 343 173 1 1 \, 0.9 50 1 \, 0 550 50;
#X connect 0 0 14 0;
#X connect 1 0 2 0;
#X connect 2 0 3 0;
#X connect 3 0 18 0;
#X connect 4 0 5 0;
#X connect 5 0 3 1;
#X connect 6 0 18 0;
#X connect 7 0 8 1;
#X connect 8 0 18 0;
#X connect 9 0 10 0;
#X connect 10 0 8 0;
#X connect 11 0 22 0;
#X connect 11 0 21 0;
#X connect 12 0 0 0;
#X connect 12 0 11 0;
#X connect 12 0 17 0;
#X connect 13 0 7 0;
#X connect 14 0 6 0;
#X connect 15 0 12 0;
#X connect 17 0 13 0;
#X connect 18 0 20 0;
#X connect 19 0 16 0;
#X connect 20 0 19 0;
#X connect 21 0 1 0;
#X connect 22 0 4 0;
#X restore 265 431 pd kick2;
#N canvas 769 147 904 730 drum2 0;
#X msg 116 132 tempo \$1 permin;
#X obj 36 136 bng 19 250 50 0 empty empty empty 17 7 0 10 #dfdfdf #000000 #000000;
#X obj 38 20 bng 19 250 50 0 empty empty empty 0 -10 0 12 #fcfcfc #000000 #000000;
#X msg 76 51 stop;
#X obj 36 105 metro;
#X msg 74 169 -1;
#X obj 147 108 * 4;
#X msg 147 74 120;
#X obj 77 19 bng 19 250 50 0 empty empty empty 0 -10 0 12 #fcfcfc #000000 #000000;
#X obj 93 249 + 1;
#X floatatom 40 290 5 0 0 0 - - - 0;
#X obj 133 259 select 1;
#X obj 40 250 int 0;
#X obj 40 332 select 0 1 2 3 4 5 6 7 8 9 10 11 12 13 14 15;
#X obj 133 232 >= 15;
#X obj 37 -16 inlet;
#X obj 16 399 bng 19 250 50 0 empty empty 0 0 -10 0 12 #fcfcfc #000000 #000000;
#X obj 39 399 bng 19 250 50 0 empty empty 1 0 -10 0 12 #fcfcfc #000000 #000000;
#X obj 62 399 bng 19 250 50 0 empty empty 2 0 -10 0 12 #fcfcfc #000000 #000000;
#X obj 85 399 bng 19 250 50 0 empty empty 3 0 -10 0 12 #fcfcfc #000000 #000000;
#X obj 117 399 bng 19 250 50 0 empty empty 4 0 -10 0 12 #fcfcfc #000000 #000000;
#X obj 140 399 bng 19 250 50 0 empty empty 5 0 -10 0 12 #fcfcfc #000000 #000000;
#X obj 163 399 bng 19 250 50 0 empty empty 6 0 -10 0 12 #fcfcfc #000000 #000000;
#X obj 186 399 bng 19 250 50 0 empty empty 7 0 -10 0 12 #fcfcfc #000000 #000000;
#X obj 215 399 bng 19 250 50 0 empty empty 8 0 -10 0 12 #fcfcfc #000000 #000000;
#X obj 238 399 bng 19 250 50 0 empty empty 9 0 -10 0 12 #fcfcfc #000000 #000000;
#X obj 261 399 bng 19 250 50 0 empty empty 10 0 -10 0 12 #fcfcfc #000000 #000000;
#X obj 284 399 bng 19 250 50 0 empty empty 11 0 -10 0 12 #fcfcfc #000000 #000000;
#X obj 316 399 bng 19 250 50 0 empty empty 12 0 -10 0 12 #fcfcfc #000000 #000000;
#X obj 339 399 bng 19 250 50 0 empty empty 13 0 -10 0 12 #fcfcfc #000000 #000000;
#X obj 362 399 bng 19 250 50 0 empty empty 14 0 -10 0 12 #fcfcfc #000000 #000000;
#X obj 385 399 bng 19 250 50 0 empty empty 15 0 -10 0 12 #fcfcfc #000000 #000000;
#X obj 45 500 s playKick1;
#X obj 149 501 s playSnare;
#X obj 259 502 s playHihat;
#X connect 0 0 4 0;
#X connect 1 0 12 0;
#X connect 2 0 4 0;
#X connect 2 0 7 0;
#X connect 3 0 4 0;
#X connect 3 0 5 0;
#X connect 4 0 1 0;
#X connect 5 0 12 0;
#X connect 6 0 0 0;
#X connect 7 0 6 0;
#X connect 8 0 3 0;
#X connect 9 0 12 1;
#X connect 10 0 13 0;
#X connect 11 0 3 0;
#X connect 12 0 9 0;
#X connect 12 0 10 0;
#X connect 12 0 14 0;
#X connect 13 0 16 0;
#X connect 13 1 17 0;
#X connect 13 2 18 0;
#X connect 13 3 19 0;
#X connect 13 4 20 0;
#X connect 13 5 21 0;
#X connect 13 6 22 0;
#X connect 13 7 23 0;
#X connect 13 8 24 0;
#X connect 13 9 25 0;
#X connect 13 10 26 0;
#X connect 13 11 27 0;
#X connect 13 12 28 0;
#X connect 13 13 29 0;
#X connect 13 14 30 0;
#X connect 13 15 31 0;
#X connect 14 0 11 0;
#X connect 15 0 2 0;
#X connect 16 0 32 0;
#X connect 18 0 34 0;
#X connect 20 0 33 0;
#X connect 22 0 34 0;
#X connect 23 0 33 0;
#X connect 23 0 34 0;
#X connect 24 0 34 0;
#X connect 25 0 34 0;
#X connect 25 0 33 0;
#X connect 26 0 32 0;
#X connect 26 0 34 0;
#X connect 27 0 34 0;
#X connect 28 0 33 0;
#X connect 28 0 34 0;
#X connect 30 0 34 0;
#X connect 30 0 33 0;
#X connect 31 0 34 0;
#X connect 31 0 33 0;
#X restore 148 302 pd drum2;
#N canvas 717 200 904 730 drum3 0;
#X msg 116 132 tempo \$1 permin;
#X obj 36 136 bng 19 250 50 0 empty empty empty 17 7 0 10 #dfdfdf #000000 #000000;
#X obj 38 20 bng 19 250 50 0 empty empty empty 0 -10 0 12 #fcfcfc #000000 #000000;
#X msg 76 51 stop;
#X obj 36 105 metro;
#X msg 74 169 -1;
#X obj 147 108 * 4;
#X msg 147 74 120;
#X obj 77 19 bng 19 250 50 0 empty empty empty 0 -10 0 12 #fcfcfc #000000 #000000;
#X obj 93 249 + 1;
#X floatatom 40 290 5 0 0 0 - - - 0;
#X obj 133 259 select 1;
#X obj 40 250 int 0;
#X obj 40 332 select 0 1 2 3 4 5 6 7 8 9 10 11 12 13 14 15;
#X obj 133 232 >= 15;
#X obj 37 -16 inlet;
#X obj 16 399 bng 19 250 50 0 empty empty 0 0 -10 0 12 #fcfcfc #000000 #000000;
#X obj 39 399 bng 19 250 50 0 empty empty 1 0 -10 0 12 #fcfcfc #000000 #000000;
#X obj 62 399 bng 19 250 50 0 empty empty 2 0 -10 0 12 #fcfcfc #000000 #000000;
#X obj 85 399 bng 19 250 50 0 empty empty 3 0 -10 0 12 #fcfcfc #000000 #000000;
#X obj 117 399 bng 19 250 50 0 empty empty 4 0 -10 0 12 #fcfcfc #000000 #000000;
#X obj 140 399 bng 19 250 50 0 empty empty 5 0 -10 0 12 #fcfcfc #000000 #000000;
#X obj 163 399 bng 19 250 50 0 empty empty 6 0 -10 0 12 #fcfcfc #000000 #000000;
#X obj 186 399 bng 19 250 50 0 empty empty 7 0 -10 0 12 #fcfcfc #000000 #000000;
#X obj 215 399 bng 19 250 50 0 empty empty 8 0 -10 0 12 #fcfcfc #000000 #000000;
#X obj 238 399 bng 19 250 50 0 empty empty 9 0 -10 0 12 #fcfcfc #000000 #000000;
#X obj 261 399 bng 19 250 50 0 empty empty 10 0 -10 0 12 #fcfcfc #000000 #000000;
#X obj 284 399 bng 19 250 50 0 empty empty 11 0 -10 0 12 #fcfcfc #000000 #000000;
#X obj 316 399 bng 19 250 50 0 empty empty 12 0 -10 0 12 #fcfcfc #000000 #000000;
#X obj 339 399 bng 19 250 50 0 empty empty 13 0 -10 0 12 #fcfcfc #000000 #000000;
#X obj 362 399 bng 19 250 50 0 empty empty 14 0 -10 0 12 #fcfcfc #000000 #000000;
#X obj 385 399 bng 19 250 50 0 empty empty 15 0 -10 0 12 #fcfcfc #000000 #000000;
#X obj 149 501 s playSnare;
#X obj 259 502 s playHihat;
#X obj 45 500 s playKick2;
#X connect 0 0 4 0;
#X connect 1 0 12 0;
#X connect 2 0 4 0;
#X connect 2 0 7 0;
#X connect 3 0 4 0;
#X connect 3 0 5 0;
#X connect 4 0 1 0;
#X connect 5 0 12 0;
#X connect 6 0 0 0;
#X connect 7 0 6 0;
#X connect 8 0 3 0;
#X connect 9 0 12 1;
#X connect 10 0 13 0;
#X connect 11 0 3 0;
#X connect 12 0 9 0;
#X connect 12 0 10 0;
#X connect 12 0 14 0;
#X connect 13 0 16 0;
#X connect 13 1 17 0;
#X connect 13 2 18 0;
#X connect 13 3 19 0;
#X connect 13 4 20 0;
#X connect 13 5 21 0;
#X connect 13 6 22 0;
#X connect 13 7 23 0;
#X connect 13 8 24 0;
#X connect 13 9 25 0;
#X connect 13 10 26 0;
#X connect 13 11 27 0;
#X connect 13 12 28 0;
#X connect 13 13 29 0;
#X connect 13 14 30 0;
#X connect 13 15 31 0;
#X connect 14 0 11 0;
#X connect 15 0 2 0;
#X connect 16 0 34 0;
#X connect 19 0 34 0;
#X connect 22 0 34 0;
#X restore 218 302 pd drum3;
#N canvas 717 200 904 730 drum4 0;
#X msg 116 132 tempo \$1 permin;
#X obj 36 136 bng 19 250 50 0 empty empty empty 17 7 0 10 #dfdfdf #000000 #000000;
#X obj 38 20 bng 19 250 50 0 empty empty empty 0 -10 0 12 #fcfcfc #000000 #000000;
#X msg 76 51 stop;
#X obj 36 105 metro;
#X msg 74 169 -1;
#X obj 147 108 * 4;
#X msg 147 74 120;
#X obj 77 19 bng 19 250 50 0 empty empty empty 0 -10 0 12 #fcfcfc #000000 #000000;
#X obj 93 249 + 1;
#X floatatom 40 290 5 0 0 0 - - - 0;
#X obj 133 259 select 1;
#X obj 40 250 int 0;
#X obj 40 332 select 0 1 2 3 4 5 6 7 8 9 10 11 12 13 14 15;
#X obj 133 232 >= 15;
#X obj 37 -16 inlet;
#X obj 16 399 bng 19 250 50 0 empty empty 0 0 -10 0 12 #fcfcfc #000000 #000000;
#X obj 39 399 bng 19 250 50 0 empty empty 1 0 -10 0 12 #fcfcfc #000000 #000000;
#X obj 62 399 bng 19 250 50 0 empty empty 2 0 -10 0 12 #fcfcfc #000000 #000000;
#X obj 85 399 bng 19 250 50 0 empty empty 3 0 -10 0 12 #fcfcfc #000000 #000000;
#X obj 117 399 bng 19 250 50 0 empty empty 4 0 -10 0 12 #fcfcfc #000000 #000000;
#X obj 140 399 bng 19 250 50 0 empty empty 5 0 -10 0 12 #fcfcfc #000000 #000000;
#X obj 163 399 bng 19 250 50 0 empty empty 6 0 -10 0 12 #fcfcfc #000000 #000000;
#X obj 186 399 bng 19 250 50 0 empty empty 7 0 -10 0 12 #fcfcfc #000000 #000000;
#X obj 215 399 bng 19 250 50 0 empty empty 8 0 -10 0 12 #fcfcfc #000000 #000000;
#X obj 238 399 bng 19 250 50 0 empty empty 9 0 -10 0 12 #fcfcfc #000000 #000000;
#X obj 261 399 bng 19 250 50 0 empty empty 10 0 -10 0 12 #fcfcfc #000000 #000000;
#X obj 284 399 bng 19 250 50 0 empty empty 11 0 -10 0 12 #fcfcfc #000000 #000000;
#X obj 316 399 bng 19 250 50 0 empty empty 12 0 -10 0 12 #fcfcfc #000000 #000000;
#X obj 339 399 bng 19 250 50 0 empty empty 13 0 -10 0 12 #fcfcfc #000000 #000000;
#X obj 362 399 bng 19 250 50 0 empty empty 14 0 -10 0 12 #fcfcfc #000000 #000000;
#X obj 385 399 bng 19 250 50 0 empty empty 15 0 -10 0 12 #fcfcfc #000000 #000000;
#X obj 149 501 s playSnare;
#X obj 259 502 s playHihat;
#X obj 45 500 s playKick2;
#X connect 0 0 4 0;
#X connect 1 0 12 0;
#X connect 2 0 4 0;
#X connect 2 0 7 0;
#X connect 3 0 4 0;
#X connect 3 0 5 0;
#X connect 4 0 1 0;
#X connect 5 0 12 0;
#X connect 6 0 0 0;
#X connect 7 0 6 0;
#X connect 8 0 3 0;
#X connect 9 0 12 1;
#X connect 10 0 13 0;
#X connect 11 0 3 0;
#X connect 12 0 9 0;
#X connect 12 0 10 0;
#X connect 12 0 14 0;
#X connect 13 0 16 0;
#X connect 13 1 17 0;
#X connect 13 2 18 0;
#X connect 13 3 19 0;
#X connect 13 4 20 0;
#X connect 13 5 21 0;
#X connect 13 6 22 0;
#X connect 13 7 23 0;
#X connect 13 8 24 0;
#X connect 13 9 25 0;
#X connect 13 10 26 0;
#X connect 13 11 27 0;
#X connect 13 12 28 0;
#X connect 13 13 29 0;
#X connect 13 14 30 0;
#X connect 13 15 31 0;
#X connect 14 0 11 0;
#X connect 15 0 2 0;
#X connect 16 0 34 0;
#X connect 19 0 34 0;
#X connect 22 0 34 0;
#X connect 28 0 33 0;
#X restore 288 302 pd drum4;
#X obj 459 467 *~ 0.25;
#N canvas 933 225 904 730 drum5 0;
#X msg 116 132 tempo \$1 permin;
#X obj 36 136 bng 19 250 50 0 empty empty empty 17 7 0 10 #dfdfdf #000000 #000000;
#X obj 38 20 bng 19 250 50 0 empty empty empty 0 -10 0 12 #fcfcfc #000000 #000000;
#X msg 76 51 stop;
#X obj 36 105 metro;
#X msg 74 169 -1;
#X obj 147 108 * 4;
#X msg 147 74 120;
#X obj 77 19 bng 19 250 50 0 empty empty empty 0 -10 0 12 #fcfcfc #000000 #000000;
#X obj 93 249 + 1;
#X floatatom 40 290 5 0 0 0 - - - 0;
#X obj 133 259 select 1;
#X obj 40 250 int 0;
#X obj 40 332 select 0 1 2 3 4 5 6 7 8 9 10 11 12 13 14 15;
#X obj 133 232 >= 15;
#X obj 37 -16 inlet;
#X obj 16 399 bng 19 250 50 0 empty empty 0 0 -10 0 12 #fcfcfc #000000 #000000;
#X obj 39 399 bng 19 250 50 0 empty empty 1 0 -10 0 12 #fcfcfc #000000 #000000;
#X obj 62 399 bng 19 250 50 0 empty empty 2 0 -10 0 12 #fcfcfc #000000 #000000;
#X obj 85 399 bng 19 250 50 0 empty empty 3 0 -10 0 12 #fcfcfc #000000 #000000;
#X obj 117 399 bng 19 250 50 0 empty empty 4 0 -10 0 12 #fcfcfc #000000 #000000;
#X obj 140 399 bng 19 250 50 0 empty empty 5 0 -10 0 12 #fcfcfc #000000 #000000;
#X obj 163 399 bng 19 250 50 0 empty empty 6 0 -10 0 12 #fcfcfc #000000 #000000;
#X obj 186 399 bng 19 250 50 0 empty empty 7 0 -10 0 12 #fcfcfc #000000 #000000;
#X obj 215 399 bng 19 250 50 0 empty empty 8 0 -10 0 12 #fcfcfc #000000 #000000;
#X obj 238 399 bng 19 250 50 0 empty empty 9 0 -10 0 12 #fcfcfc #000000 #000000;
#X obj 261 399 bng 19 250 50 0 empty empty 10 0 -10 0 12 #fcfcfc #000000 #000000;
#X obj 284 399 bng 19 250 50 0 empty empty 11 0 -10 0 12 #fcfcfc #000000 #000000;
#X obj 316 399 bng 19 250 50 0 empty empty 12 0 -10 0 12 #fcfcfc #000000 #000000;
#X obj 339 399 bng 19 250 50 0 empty empty 13 0 -10 0 12 #fcfcfc #000000 #000000;
#X obj 362 399 bng 19 250 50 0 empty empty 14 0 -10 0 12 #fcfcfc #000000 #000000;
#X obj 385 399 bng 19 250 50 0 empty empty 15 0 -10 0 12 #fcfcfc #000000 #000000;
#X obj 149 501 s playSnare;
#X obj 259 502 s playHihat;
#X obj 45 500 s playKick2;
#X connect 0 0 4 0;
#X connect 1 0 12 0;
#X connect 2 0 4 0;
#X connect 2 0 7 0;
#X connect 3 0 4 0;
#X connect 3 0 5 0;
#X connect 4 0 1 0;
#X connect 5 0 12 0;
#X connect 6 0 0 0;
#X connect 7 0 6 0;
#X connect 8 0 3 0;
#X connect 9 0 12 1;
#X connect 10 0 13 0;
#X connect 11 0 3 0;
#X connect 12 0 9 0;
#X connect 12 0 10 0;
#X connect 12 0 14 0;
#X connect 13 0 16 0;
#X connect 13 1 17 0;
#X connect 13 2 18 0;
#X connect 13 3 19 0;
#X connect 13 4 20 0;
#X connect 13 5 21 0;
#X connect 13 6 22 0;
#X connect 13 7 23 0;
#X connect 13 8 24 0;
#X connect 13 9 25 0;
#X connect 13 10 26 0;
#X connect 13 11 27 0;
#X connect 13 12 28 0;
#X connect 13 13 29 0;
#X connect 13 14 30 0;
#X connect 13 15 31 0;
#X connect 14 0 11 0;
#X connect 15 0 2 0;
#X connect 16 0 34 0;
#X connect 19 0 34 0;
#X connect 20 0 33 0;
#X connect 22 0 34 0;
#X connect 25 0 33 0;
#X connect 26 0 33 0;
#X connect 28 0 33 0;
#X connect 28 0 32 0;
#X connect 29 0 33 0;
#X connect 29 0 32 0;
#X connect 30 0 33 0;
#X connect 30 0 32 0;
#X connect 31 0 33 0;
#X connect 31 0 32 0;
#X restore 361 303 pd drum5;
#N canvas 717 200 904 730 drum6 0;
#X msg 116 132 tempo \$1 permin;
#X obj 36 136 bng 19 250 50 0 empty empty empty 17 7 0 10 #dfdfdf #000000 #000000;
#X obj 38 20 bng 19 250 50 0 empty empty empty 0 -10 0 12 #fcfcfc #000000 #000000;
#X msg 76 51 stop;
#X obj 36 105 metro;
#X msg 74 169 -1;
#X obj 147 108 * 4;
#X msg 147 74 120;
#X obj 77 19 bng 19 250 50 0 empty empty empty 0 -10 0 12 #fcfcfc #000000 #000000;
#X obj 93 249 + 1;
#X floatatom 40 290 5 0 0 0 - - - 0;
#X obj 133 259 select 1;
#X obj 40 250 int 0;
#X obj 40 332 select 0 1 2 3 4 5 6 7 8 9 10 11 12 13 14 15;
#X obj 133 232 >= 15;
#X obj 37 -16 inlet;
#X obj 16 399 bng 19 250 50 0 empty empty 0 0 -10 0 12 #fcfcfc #000000 #000000;
#X obj 39 399 bng 19 250 50 0 empty empty 1 0 -10 0 12 #fcfcfc #000000 #000000;
#X obj 62 399 bng 19 250 50 0 empty empty 2 0 -10 0 12 #fcfcfc #000000 #000000;
#X obj 85 399 bng 19 250 50 0 empty empty 3 0 -10 0 12 #fcfcfc #000000 #000000;
#X obj 117 399 bng 19 250 50 0 empty empty 4 0 -10 0 12 #fcfcfc #000000 #000000;
#X obj 140 399 bng 19 250 50 0 empty empty 5 0 -10 0 12 #fcfcfc #000000 #000000;
#X obj 163 399 bng 19 250 50 0 empty empty 6 0 -10 0 12 #fcfcfc #000000 #000000;
#X obj 186 399 bng 19 250 50 0 empty empty 7 0 -10 0 12 #fcfcfc #000000 #000000;
#X obj 215 399 bng 19 250 50 0 empty empty 8 0 -10 0 12 #fcfcfc #000000 #000000;
#X obj 238 399 bng 19 250 50 0 empty empty 9 0 -10 0 12 #fcfcfc #000000 #000000;
#X obj 261 399 bng 19 250 50 0 empty empty 10 0 -10 0 12 #fcfcfc #000000 #000000;
#X obj 284 399 bng 19 250 50 0 empty empty 11 0 -10 0 12 #fcfcfc #000000 #000000;
#X obj 316 399 bng 19 250 50 0 empty empty 12 0 -10 0 12 #fcfcfc #000000 #000000;
#X obj 339 399 bng 19 250 50 0 empty empty 13 0 -10 0 12 #fcfcfc #000000 #000000;
#X obj 362 399 bng 19 250 50 0 empty empty 14 0 -10 0 12 #fcfcfc #000000 #000000;
#X obj 385 399 bng 19 250 50 0 empty empty 15 0 -10 0 12 #fcfcfc #000000 #000000;
#X obj 149 501 s playSnare;
#X obj 259 502 s playHihat;
#X obj 45 500 s playKick2;
#X connect 0 0 4 0;
#X connect 1 0 12 0;
#X connect 2 0 4 0;
#X connect 2 0 7 0;
#X connect 3 0 4 0;
#X connect 3 0 5 0;
#X connect 4 0 1 0;
#X connect 5 0 12 0;
#X connect 6 0 0 0;
#X connect 7 0 6 0;
#X connect 8 0 3 0;
#X connect 9 0 12 1;
#X connect 10 0 13 0;
#X connect 11 0 3 0;
#X connect 12 0 9 0;
#X connect 12 0 10 0;
#X connect 12 0 14 0;
#X connect 13 0 16 0;
#X connect 13 1 17 0;
#X connect 13 2 18 0;
#X connect 13 3 19 0;
#X connect 13 4 20 0;
#X connect 13 5 21 0;
#X connect 13 6 22 0;
#X connect 13 7 23 0;
#X connect 13 8 24 0;
#X connect 13 9 25 0;
#X connect 13 10 26 0;
#X connect 13 11 27 0;
#X connect 13 12 28 0;
#X connect 13 13 29 0;
#X connect 13 14 30 0;
#X connect 13 15 31 0;
#X connect 14 0 11 0;
#X connect 15 0 2 0;
#X connect 16 0 34 0;
#X connect 19 0 34 0;
#X connect 20 0 33 0;
#X connect 22 0 34 0;
#X connect 25 0 33 0;
#X connect 26 0 33 0;
#X connect 28 0 33 0;
#X connect 28 0 32 0;
#X connect 30 0 33 0;
#X restore 431 302 pd drum6;
#N canvas 717 200 904 730 drum7 0;
#X msg 116 132 tempo \$1 permin;
#X obj 36 136 bng 19 250 50 0 empty empty empty 17 7 0 10 #dfdfdf #000000 #000000;
#X obj 38 20 bng 19 250 50 0 empty empty empty 0 -10 0 12 #fcfcfc #000000 #000000;
#X msg 76 51 stop;
#X obj 36 105 metro;
#X msg 74 169 -1;
#X obj 147 108 * 4;
#X msg 147 74 120;
#X obj 77 19 bng 19 250 50 0 empty empty empty 0 -10 0 12 #fcfcfc #000000 #000000;
#X obj 93 249 + 1;
#X floatatom 40 290 5 0 0 0 - - - 0;
#X obj 133 259 select 1;
#X obj 40 250 int 0;
#X obj 40 332 select 0 1 2 3 4 5 6 7 8 9 10 11 12 13 14 15;
#X obj 133 232 >= 15;
#X obj 37 -16 inlet;
#X obj 16 399 bng 19 250 50 0 empty empty 0 0 -10 0 12 #fcfcfc #000000 #000000;
#X obj 39 399 bng 19 250 50 0 empty empty 1 0 -10 0 12 #fcfcfc #000000 #000000;
#X obj 62 399 bng 19 250 50 0 empty empty 2 0 -10 0 12 #fcfcfc #000000 #000000;
#X obj 85 399 bng 19 250 50 0 empty empty 3 0 -10 0 12 #fcfcfc #000000 #000000;
#X obj 117 399 bng 19 250 50 0 empty empty 4 0 -10 0 12 #fcfcfc #000000 #000000;
#X obj 140 399 bng 19 250 50 0 empty empty 5 0 -10 0 12 #fcfcfc #000000 #000000;
#X obj 163 399 bng 19 250 50 0 empty empty 6 0 -10 0 12 #fcfcfc #000000 #000000;
#X obj 186 399 bng 19 250 50 0 empty empty 7 0 -10 0 12 #fcfcfc #000000 #000000;
#X obj 215 399 bng 19 250 50 0 empty empty 8 0 -10 0 12 #fcfcfc #000000 #000000;
#X obj 238 399 bng 19 250 50 0 empty empty 9 0 -10 0 12 #fcfcfc #000000 #000000;
#X obj 261 399 bng 19 250 50 0 empty empty 10 0 -10 0 12 #fcfcfc #000000 #000000;
#X obj 284 399 bng 19 250 50 0 empty empty 11 0 -10 0 12 #fcfcfc #000000 #000000;
#X obj 316 399 bng 19 250 50 0 empty empty 12 0 -10 0 12 #fcfcfc #000000 #000000;
#X obj 339 399 bng 19 250 50 0 empty empty 13 0 -10 0 12 #fcfcfc #000000 #000000;
#X obj 362 399 bng 19 250 50 0 empty empty 14 0 -10 0 12 #fcfcfc #000000 #000000;
#X obj 385 399 bng 19 250 50 0 empty empty 15 0 -10 0 12 #fcfcfc #000000 #000000;
#X obj 149 501 s playSnare;
#X obj 259 502 s playHihat;
#X obj 45 500 s playKick2;
#X connect 0 0 4 0;
#X connect 1 0 12 0;
#X connect 2 0 4 0;
#X connect 2 0 7 0;
#X connect 3 0 4 0;
#X connect 3 0 5 0;
#X connect 4 0 1 0;
#X connect 5 0 12 0;
#X connect 6 0 0 0;
#X connect 7 0 6 0;
#X connect 8 0 3 0;
#X connect 9 0 12 1;
#X connect 10 0 13 0;
#X connect 11 0 3 0;
#X connect 12 0 9 0;
#X connect 12 0 10 0;
#X connect 12 0 14 0;
#X connect 13 0 16 0;
#X connect 13 1 17 0;
#X connect 13 2 18 0;
#X connect 13 3 19 0;
#X connect 13 4 20 0;
#X connect 13 5 21 0;
#X connect 13 6 22 0;
#X connect 13 7 23 0;
#X connect 13 8 24 0;
#X connect 13 9 25 0;
#X connect 13 10 26 0;
#X connect 13 11 27 0;
#X connect 13 12 28 0;
#X connect 13 13 29 0;
#X connect 13 14 30 0;
#X connect 13 15 31 0;
#X connect 14 0 11 0;
#X connect 15 0 2 0;
#X connect 16 0 34 0;
#X connect 19 0 34 0;
#X connect 20 0 33 0;
#X connect 22 0 34 0;
#X connect 25 0 33 0;
#X connect 26 0 33 0;
#X connect 28 0 33 0;
#X connect 28 0 32 0;
#X connect 30 0 33 0;
#X connect 31 0 32 0;
#X restore 502 301 pd drum7;
#N canvas 242 86 904 730 drum8 0;
#X msg 116 132 tempo \$1 permin;
#X obj 36 136 bng 19 250 50 0 empty empty empty 17 7 0 10 #dfdfdf #000000 #000000;
#X obj 38 20 bng 19 250 50 0 empty empty empty 0 -10 0 12 #fcfcfc #000000 #000000;
#X msg 76 51 stop;
#X obj 36 105 metro;
#X msg 74 169 -1;
#X obj 147 108 * 4;
#X msg 147 74 120;
#X obj 77 19 bng 19 250 50 0 empty empty empty 0 -10 0 12 #fcfcfc #000000 #000000;
#X obj 93 249 + 1;
#X floatatom 40 290 5 0 0 0 - - - 0;
#X obj 133 259 select 1;
#X obj 40 250 int 0;
#X obj 40 332 select 0 1 2 3 4 5 6 7 8 9 10 11 12 13 14 15;
#X obj 133 232 >= 15;
#X obj 37 -16 inlet;
#X obj 16 399 bng 19 250 50 0 empty empty 0 0 -10 0 12 #fcfcfc #000000 #000000;
#X obj 39 399 bng 19 250 50 0 empty empty 1 0 -10 0 12 #fcfcfc #000000 #000000;
#X obj 62 399 bng 19 250 50 0 empty empty 2 0 -10 0 12 #fcfcfc #000000 #000000;
#X obj 85 399 bng 19 250 50 0 empty empty 3 0 -10 0 12 #fcfcfc #000000 #000000;
#X obj 117 399 bng 19 250 50 0 empty empty 4 0 -10 0 12 #fcfcfc #000000 #000000;
#X obj 140 399 bng 19 250 50 0 empty empty 5 0 -10 0 12 #fcfcfc #000000 #000000;
#X obj 163 399 bng 19 250 50 0 empty empty 6 0 -10 0 12 #fcfcfc #000000 #000000;
#X obj 186 399 bng 19 250 50 0 empty empty 7 0 -10 0 12 #fcfcfc #000000 #000000;
#X obj 215 399 bng 19 250 50 0 empty empty 8 0 -10 0 12 #fcfcfc #000000 #000000;
#X obj 238 399 bng 19 250 50 0 empty empty 9 0 -10 0 12 #fcfcfc #000000 #000000;
#X obj 261 399 bng 19 250 50 0 empty empty 10 0 -10 0 12 #fcfcfc #000000 #000000;
#X obj 284 399 bng 19 250 50 0 empty empty 11 0 -10 0 12 #fcfcfc #000000 #000000;
#X obj 316 399 bng 19 250 50 0 empty empty 12 0 -10 0 12 #fcfcfc #000000 #000000;
#X obj 339 399 bng 19 250 50 0 empty empty 13 0 -10 0 12 #fcfcfc #000000 #000000;
#X obj 362 399 bng 19 250 50 0 empty empty 14 0 -10 0 12 #fcfcfc #000000 #000000;
#X obj 385 399 bng 19 250 50 0 empty empty 15 0 -10 0 12 #fcfcfc #000000 #000000;
#X obj 45 500 s playKick1;
#X obj 149 501 s playSnare;
#X obj 259 502 s playHihat;
#X connect 0 0 4 0;
#X connect 1 0 12 0;
#X connect 2 0 4 0;
#X connect 2 0 7 0;
#X connect 3 0 4 0;
#X connect 3 0 5 0;
#X connect 4 0 1 0;
#X connect 5 0 12 0;
#X connect 6 0 0 0;
#X connect 7 0 6 0;
#X connect 8 0 3 0;
#X connect 9 0 12 1;
#X connect 10 0 13 0;
#X connect 11 0 3 0;
#X connect 12 0 9 0;
#X connect 12 0 10 0;
#X connect 12 0 14 0;
#X connect 13 0 16 0;
#X connect 13 1 17 0;
#X connect 13 2 18 0;
#X connect 13 3 19 0;
#X connect 13 4 20 0;
#X connect 13 5 21 0;
#X connect 13 6 22 0;
#X connect 13 7 23 0;
#X connect 13 8 24 0;
#X connect 13 9 25 0;
#X connect 13 10 26 0;
#X connect 13 11 27 0;
#X connect 13 12 28 0;
#X connect 13 13 29 0;
#X connect 13 14 30 0;
#X connect 13 15 31 0;
#X connect 14 0 11 0;
#X connect 15 0 2 0;
#X connect 16 0 32 0;
#X connect 18 0 34 0;
#X connect 20 0 33 0;
#X connect 22 0 34 0;
#X connect 23 0 33 0;
#X connect 23 0 34 0;
#X connect 24 0 34 0;
#X connect 25 0 34 0;
#X connect 25 0 33 0;
#X connect 26 0 32 0;
#X connect 26 0 34 0;
#X connect 27 0 34 0;
#X connect 28 0 33 0;
#X connect 28 0 34 0;
#X restore 570 302 pd drum8;
#X obj 432 594 *~ 0.4;
#X obj 431 557 rev2~ 100 70 3000 50;
#X connect 0 0 15 0;
#X connect 1 0 3 0;
#X connect 2 0 0 0;
#X connect 4 0 25 0;
#X connect 5 0 26 0;
#X connect 6 0 27 0;
#X connect 7 0 29 0;
#X connect 8 0 30 0;
#X connect 9 0 31 0;
#X connect 10 0 32 0;
#X connect 11 0 12 0;
#X connect 12 0 13 0;
#X connect 12 1 14 0;
#X connect 13 0 1 0;
#X connect 13 1 4 0;
#X connect 13 2 5 0;
#X connect 13 3 6 0;
#X connect 13 4 7 0;
#X connect 13 5 8 0;
#X connect 13 6 9 0;
#X connect 13 7 10 0;
#X connect 14 0 0 1;
#X connect 16 0 20 0;
#X connect 17 0 28 0;
#X connect 18 0 19 0;
#X connect 19 0 2 0;
#X connect 20 0 2 0;
#X connect 20 0 34 0;
#X connect 21 0 24 0;
#X connect 22 0 16 0;
#X connect 23 0 17 0;
#X connect 24 0 2 0;
#X connect 28 0 2 0;
#X connect 28 0 34 0;
#X connect 33 0 2 0;
#X connect 34 0 33 0;
#X connect 34 1 33 0;
