#N canvas 0 25 1440 785 12;
#X obj 79 450 pack 0 0;
#X obj 79 507 - 1;
#X obj 79 539 pack 0 0 0;
#X obj 79 479 poly 16 1;
#X obj 524 47 netreceive -f -u -b 48763;
#X obj 79 415 makenote 200 14000;
#X obj 351 445 pack 0 0;
#X obj 351 502 - 1;
#X obj 351 534 pack 0 0 0;
#X obj 351 474 poly 16 1;
#X obj 352 414 makenote 200 14000;
#X obj 84 336 receive p;
#X obj 466 281 send;
#X msg 64 187 symbol p;
#X obj 480 241 pack s f f f;
#X obj 81 367 unpack s f f f;
#X obj 370 368 unpack s f f f;
#X obj 524 96 unpack f f f f f;
#X obj 606 139 * 256;
#X obj 660 185 +;
#X msg 235 186 symbol c;
#X msg 314 186 symbol d;
#X obj 590 462 pack 0 0;
#X obj 590 519 - 1;
#X obj 590 551 pack 0 0 0;
#X obj 590 491 poly 16 1;
#X obj 590 427 makenote 200 14000;
#X obj 591 363 unpack s f f f;
#X obj 594 332 receive c;
#X obj 805 362 unpack s f f f;
#X obj 808 331 receive d;
#X obj 79 569 clone piano_synth.cl 16;
#X obj 590 581 clone piano_synth.cl 16;
#X obj 972 360 unpack s f f f;
#X obj 828 443 pack 0 0;
#X obj 270 124 sel 0 1 2 3 4;
#X msg 388 187 symbol snd;
#X msg 143 187 symbol str;
#X obj 369 330 receive str;
#X obj 975 329 receive snd;
#X obj 997 546 sound;
#X obj 997 448 pack 0 0;
#X obj 351 572 clone string_synth.cl 16;
#X obj 833 543 drum;
#X obj 78 627 *~ 0.6;
#X obj 351 615 *~ 0.18;
#X obj 515 882 *~ 1;
#X obj 515 927 dac~;
#N canvas 0 50 450 250 (subpatch) 0;
#X array oscope 3000 float 4;
#X coords 0 1 2999 -1 450 150 1 0 0;
#X restore 758 150 graph;
#X text 762 59 How to use oscope: copy "pd oscope" then create an array named "oscope" link sound output to its inlet;
#N canvas 64 64 1000 607 oscope 0;
#X obj 152 219 tabwrite~ oscope;
#X obj 152 138 metro;
#X obj 152 177 bng 19 250 50 0 empty empty empty 0 -10 0 12 #fcfcfc #000000 #000000;
#X obj 152 48 tgl 19 1 empty empty empty 0 -10 0 12 #fcfcfc #000000 #000000 1 1;
#X msg 176 105 tempo 100 msec;
#X obj 75 173 inlet~;
#X connect 1 0 2 0;
#X connect 2 0 0 0;
#X connect 3 0 1 0;
#X connect 3 0 4 0;
#X connect 4 0 1 0;
#X connect 5 0 0 0;
#X restore 574 928 pd oscope;
#X obj 717 752 rev2~ 100 90 3000 40;
#X obj 709 790 *~ 0.4;
#X obj 836 615 *~ 4;
#X obj 998 616 *~ 0.05;
#X obj 592 632 *~ 5;
#X obj 945 825 writesf~;
#X msg 958 725 open timeback.wav \, start;
#X msg 1028 772 stop;
#X obj 1201 605 readsf~;
#X msg 1202 569 open timeback.wav \, 1;
#X obj 1202 642 dac~;
#X connect 0 0 3 0;
#X connect 1 0 2 0;
#X connect 2 0 31 0;
#X connect 3 0 1 0;
#X connect 3 1 2 1;
#X connect 3 2 2 2;
#X connect 4 0 17 0;
#X connect 5 0 0 0;
#X connect 5 1 0 1;
#X connect 6 0 9 0;
#X connect 7 0 8 0;
#X connect 8 0 42 0;
#X connect 9 0 7 0;
#X connect 9 1 8 1;
#X connect 9 2 8 2;
#X connect 10 0 6 0;
#X connect 10 1 6 1;
#X connect 11 0 15 0;
#X connect 13 0 12 1;
#X connect 13 0 14 0;
#X connect 14 0 12 0;
#X connect 15 1 5 0;
#X connect 15 2 5 1;
#X connect 15 3 5 2;
#X connect 16 1 10 0;
#X connect 16 2 10 1;
#X connect 16 3 10 2;
#X connect 17 0 35 0;
#X connect 17 1 14 1;
#X connect 17 2 14 2;
#X connect 17 3 18 0;
#X connect 17 4 19 1;
#X connect 18 0 19 0;
#X connect 19 0 14 3;
#X connect 20 0 12 1;
#X connect 20 0 14 0;
#X connect 21 0 12 1;
#X connect 21 0 14 0;
#X connect 22 0 25 0;
#X connect 23 0 24 0;
#X connect 24 0 32 0;
#X connect 25 0 23 0;
#X connect 25 1 24 1;
#X connect 25 2 24 2;
#X connect 26 0 22 0;
#X connect 26 1 22 1;
#X connect 27 1 26 0;
#X connect 27 2 26 1;
#X connect 27 3 26 2;
#X connect 28 0 27 0;
#X connect 29 1 34 0;
#X connect 29 2 34 1;
#X connect 30 0 29 0;
#X connect 31 0 44 0;
#X connect 32 0 55 0;
#X connect 33 1 41 0;
#X connect 33 2 41 1;
#X connect 34 0 43 0;
#X connect 35 0 13 0;
#X connect 35 1 37 0;
#X connect 35 2 20 0;
#X connect 35 3 21 0;
#X connect 35 4 36 0;
#X connect 36 0 12 1;
#X connect 36 0 14 0;
#X connect 37 0 12 1;
#X connect 37 0 14 0;
#X connect 38 0 16 0;
#X connect 39 0 33 0;
#X connect 40 0 54 0;
#X connect 41 0 40 0;
#X connect 42 0 45 0;
#X connect 43 0 53 0;
#X connect 44 0 46 0;
#X connect 44 0 51 0;
#X connect 45 0 46 0;
#X connect 45 0 51 0;
#X connect 46 0 47 0;
#X connect 46 0 47 1;
#X connect 46 0 50 0;
#X connect 46 0 56 0;
#X connect 51 0 52 0;
#X connect 51 1 52 0;
#X connect 52 0 46 0;
#X connect 53 0 46 0;
#X connect 54 0 46 0;
#X connect 54 0 51 0;
#X connect 55 0 46 0;
#X connect 55 0 51 0;
#X connect 57 0 56 0;
#X connect 58 0 56 0;
#X connect 59 0 61 0;
#X connect 59 0 61 1;
#X connect 60 0 59 0;
