#N canvas 309 238 615 513 12;
#X obj 110 173 mtof;
#X obj 110 108 inlet, f 8;
#X obj 112 432 outlet~;
#X obj 110 142 unpack i i;
#X obj 112 403 *~;
#X floatatom 188 527 5 0 0 0 - - - 0;
#X obj 183 604 *~;
#N canvas 626 402 450 300 adsr 0;
#X obj 56 14 inlet;
#X obj 50 58 t b b;
#X obj 56 186 line~;
#X obj 57 253 outlet~;
#X obj 266 28 inlet;
#X msg 280 110 0 100;
#X obj 133 93 delay 10;
#X msg 48 94 0 \, 10 10;
#X msg 143 131 10 \, 1 100;
#X connect 0 0 1 0;
#X connect 1 0 6 0;
#X connect 1 1 7 0;
#X connect 2 0 3 0;
#X connect 4 0 5 0;
#X connect 5 0 2 0;
#X connect 6 0 8 0;
#X connect 7 0 2 0;
#X connect 8 0 2 0;
#X restore 327 573 pd adsr;
#X obj 416 557 bng 19 250 50 0 empty empty empty 0 -10 0 12 #fcfcfc #000000 #000000;
#X obj 184 558 osc~;
#X obj 420 522 delay 600;
#X floatatom 198 537 5 0 0 0 - - - 0;
#X obj 193 614 *~;
#N canvas 626 402 450 300 adsr 0;
#X obj 56 14 inlet;
#X obj 50 58 t b b;
#X obj 56 186 line~;
#X obj 57 253 outlet~;
#X obj 266 28 inlet;
#X msg 280 110 0 100;
#X obj 133 93 delay 10;
#X msg 48 94 0 \, 10 10;
#X msg 143 131 10 \, 1 100;
#X connect 0 0 1 0;
#X connect 1 0 6 0;
#X connect 1 1 7 0;
#X connect 2 0 3 0;
#X connect 4 0 5 0;
#X connect 5 0 2 0;
#X connect 6 0 8 0;
#X connect 7 0 2 0;
#X connect 8 0 2 0;
#X restore 337 583 pd adsr;
#X obj 426 567 bng 19 250 50 0 empty empty empty 0 -10 0 12 #fcfcfc #000000 #000000;
#X obj 194 568 osc~;
#X obj 430 532 delay 600;
#X floatatom 208 547 5 0 0 0 - - - 0;
#X obj 203 624 *~;
#N canvas 626 402 450 300 adsr 0;
#X obj 56 14 inlet;
#X obj 50 58 t b b;
#X obj 56 186 line~;
#X obj 57 253 outlet~;
#X obj 266 28 inlet;
#X msg 280 110 0 100;
#X obj 133 93 delay 10;
#X msg 48 94 0 \, 10 10;
#X msg 143 131 10 \, 1 100;
#X connect 0 0 1 0;
#X connect 1 0 6 0;
#X connect 1 1 7 0;
#X connect 2 0 3 0;
#X connect 4 0 5 0;
#X connect 5 0 2 0;
#X connect 6 0 8 0;
#X connect 7 0 2 0;
#X connect 8 0 2 0;
#X restore 347 593 pd adsr;
#X obj 352 529 bng 19 250 50 0 empty empty empty 0 -10 0 12 #fcfcfc #000000 #000000;
#X obj 436 577 bng 19 250 50 0 empty empty empty 0 -10 0 12 #fcfcfc #000000 #000000;
#X obj 204 578 osc~;
#X obj 440 542 delay 600;
#X floatatom 218 557 5 0 0 0 - - - 0;
#X obj 213 634 *~;
#N canvas 626 402 450 300 adsr 0;
#X obj 56 14 inlet;
#X obj 50 58 t b b;
#X obj 56 186 line~;
#X obj 57 253 outlet~;
#X obj 266 28 inlet;
#X msg 280 110 0 100;
#X obj 133 93 delay 10;
#X msg 48 94 0 \, 10 10;
#X msg 143 131 10 \, 1 100;
#X connect 0 0 1 0;
#X connect 1 0 6 0;
#X connect 1 1 7 0;
#X connect 2 0 3 0;
#X connect 4 0 5 0;
#X connect 5 0 2 0;
#X connect 6 0 8 0;
#X connect 7 0 2 0;
#X connect 8 0 2 0;
#X restore 357 603 pd adsr;
#X obj 362 539 bng 19 250 50 0 empty empty empty 0 -10 0 12 #fcfcfc #000000 #000000;
#X obj 446 587 bng 19 250 50 0 empty empty empty 0 -10 0 12 #fcfcfc #000000 #000000;
#X obj 214 588 osc~;
#X obj 450 552 delay 600;
#X floatatom 228 567 5 0 0 0 - - - 0;
#X obj 223 644 *~;
#N canvas 626 402 450 300 adsr 0;
#X obj 56 14 inlet;
#X obj 50 58 t b b;
#X obj 56 186 line~;
#X obj 57 253 outlet~;
#X obj 266 28 inlet;
#X msg 280 110 0 100;
#X obj 133 93 delay 10;
#X msg 48 94 0 \, 10 10;
#X msg 143 131 10 \, 1 100;
#X connect 0 0 1 0;
#X connect 1 0 6 0;
#X connect 1 1 7 0;
#X connect 2 0 3 0;
#X connect 4 0 5 0;
#X connect 5 0 2 0;
#X connect 6 0 8 0;
#X connect 7 0 2 0;
#X connect 8 0 2 0;
#X restore 367 613 pd adsr;
#X obj 372 549 bng 19 250 50 0 empty empty empty 0 -10 0 12 #fcfcfc #000000 #000000;
#X obj 456 597 bng 19 250 50 0 empty empty empty 0 -10 0 12 #fcfcfc #000000 #000000;
#X obj 224 598 osc~;
#X obj 460 562 delay 600;
#X floatatom 238 577 5 0 0 0 - - - 0;
#X obj 233 654 *~;
#N canvas 626 402 450 300 adsr 0;
#X obj 56 14 inlet;
#X obj 50 58 t b b;
#X obj 56 186 line~;
#X obj 57 253 outlet~;
#X obj 266 28 inlet;
#X msg 280 110 0 100;
#X obj 133 93 delay 10;
#X msg 48 94 0 \, 10 10;
#X msg 143 131 10 \, 1 100;
#X connect 0 0 1 0;
#X connect 1 0 6 0;
#X connect 1 1 7 0;
#X connect 2 0 3 0;
#X connect 4 0 5 0;
#X connect 5 0 2 0;
#X connect 6 0 8 0;
#X connect 7 0 2 0;
#X connect 8 0 2 0;
#X restore 377 623 pd adsr;
#X obj 382 559 bng 19 250 50 0 empty empty empty 0 -10 0 12 #fcfcfc #000000 #000000;
#X obj 466 607 bng 19 250 50 0 empty empty empty 0 -10 0 12 #fcfcfc #000000 #000000;
#X obj 234 608 osc~;
#X obj 470 572 delay 600;
#X floatatom 193 530 5 0 0 0 - - - 0;
#X obj 188 607 *~;
#N canvas 626 402 450 300 adsr 0;
#X obj 56 14 inlet;
#X obj 50 58 t b b;
#X obj 56 186 line~;
#X obj 57 253 outlet~;
#X obj 266 28 inlet;
#X msg 280 110 0 100;
#X obj 133 93 delay 10;
#X msg 48 94 0 \, 10 10;
#X msg 143 131 10 \, 1 100;
#X connect 0 0 1 0;
#X connect 1 0 6 0;
#X connect 1 1 7 0;
#X connect 2 0 3 0;
#X connect 4 0 5 0;
#X connect 5 0 2 0;
#X connect 6 0 8 0;
#X connect 7 0 2 0;
#X connect 8 0 2 0;
#X restore 332 576 pd adsr;
#X obj 337 512 bng 19 250 50 0 empty empty empty 0 -10 0 12 #fcfcfc #000000 #000000;
#X obj 421 560 bng 19 250 50 0 empty empty empty 0 -10 0 12 #fcfcfc #000000 #000000;
#X obj 189 561 osc~;
#X obj 425 525 delay 600;
#X floatatom 121 221 5 0 0 0 - - - 0;
#X obj 121 295 osc~;
#N canvas 255 114 841 534 adsr 0;
#X obj 217 76 sel 0;
#X msg 165 221 0;
#X floatatom 375 218 5 0 0 0 - - - 0;
#X floatatom 239 222 5 0 0 0 - - - 0;
#X obj 174 320 line~;
#X obj 162 346 *~;
#X obj 193 47 inlet;
#X obj 160 382 outlet~;
#X obj 401 341 print;
#X floatatom 530 230 5 0 0 0 - - - 0;
#X obj 455 279 pack 0 100;
#X obj 386 171 float;
#X obj 574 141 delay 160;
#X obj 522 184 float;
#X floatatom 700 321 5 0 0 0 - - - 0;
#X obj 578 222 / 140;
#X obj 552 286 pack 0 2500;
#X obj 165 259 pack 0 10;
#X obj 443 145 delay 80;
#X obj 310 262 pack 0 20;
#X obj 319 221 / 36;
#X obj 449 208 / 60;
#X connect 0 0 1 0;
#X connect 0 1 11 1;
#X connect 0 1 12 0;
#X connect 0 1 13 1;
#X connect 0 1 18 0;
#X connect 0 1 20 0;
#X connect 1 0 17 0;
#X connect 2 0 19 1;
#X connect 3 0 17 1;
#X connect 4 0 5 0;
#X connect 4 0 5 1;
#X connect 5 0 7 0;
#X connect 6 0 0 0;
#X connect 9 0 10 1;
#X connect 10 0 8 0;
#X connect 10 0 4 0;
#X connect 11 0 21 0;
#X connect 12 0 13 0;
#X connect 13 0 15 0;
#X connect 14 0 16 1;
#X connect 15 0 16 0;
#X connect 16 0 4 0;
#X connect 16 0 8 0;
#X connect 17 0 4 0;
#X connect 18 0 11 0;
#X connect 19 0 4 0;
#X connect 19 0 8 0;
#X connect 20 0 19 0;
#X connect 21 0 10 0;
#X connect 21 0 8 0;
#X restore 246 338 pd adsr;
#X obj 347 522 bng 19 250 50 0 empty empty empty 0 -10 0 12 #fcfcfc #000000 #000000;
#X obj 431 570 bng 19 250 50 0 empty empty empty 0 -10 0 12 #fcfcfc #000000 #000000;
#X obj 435 535 delay 600;
#X obj 357 532 bng 19 250 50 0 empty empty empty 0 -10 0 12 #fcfcfc #000000 #000000;
#X connect 0 0 52 0;
#X connect 1 0 3 0;
#X connect 3 0 0 0;
#X connect 3 1 54 0;
#X connect 4 0 2 0;
#X connect 5 0 9 0;
#X connect 7 0 6 1;
#X connect 8 0 7 1;
#X connect 9 0 6 0;
#X connect 10 0 8 0;
#X connect 11 0 15 0;
#X connect 13 0 12 1;
#X connect 14 0 13 1;
#X connect 15 0 12 0;
#X connect 16 0 14 0;
#X connect 17 0 22 0;
#X connect 19 0 18 1;
#X connect 20 0 19 0;
#X connect 20 0 23 0;
#X connect 21 0 19 1;
#X connect 22 0 18 0;
#X connect 23 0 21 0;
#X connect 24 0 29 0;
#X connect 26 0 25 1;
#X connect 27 0 26 0;
#X connect 27 0 30 0;
#X connect 28 0 26 1;
#X connect 29 0 25 0;
#X connect 30 0 28 0;
#X connect 31 0 36 0;
#X connect 33 0 32 1;
#X connect 34 0 33 0;
#X connect 34 0 37 0;
#X connect 35 0 33 1;
#X connect 36 0 32 0;
#X connect 37 0 35 0;
#X connect 38 0 43 0;
#X connect 40 0 39 1;
#X connect 41 0 40 0;
#X connect 41 0 44 0;
#X connect 42 0 40 1;
#X connect 43 0 39 0;
#X connect 44 0 42 0;
#X connect 45 0 50 0;
#X connect 47 0 46 1;
#X connect 48 0 47 0;
#X connect 48 0 51 0;
#X connect 49 0 47 1;
#X connect 50 0 46 0;
#X connect 51 0 49 0;
#X connect 52 0 53 0;
#X connect 53 0 4 0;
#X connect 54 0 4 1;
#X connect 55 0 57 0;
#X connect 57 0 56 0;
