#N canvas 1046 208 758 638 12;
#X obj 142 88 inlet;
#X obj 149 324 *~;
#X obj 149 369 outlet~;
#N canvas 70 27 1850 984 zip 0;
#X obj 138 108 bng 19 250 50 0 empty empty empty 0 -10 0 12 #fcfcfc #000000 #000000;
#X obj 138 188 line~;
#X obj 138 212 osc~;
#X floatatom 85 177 5 0 0 0 - - - 0;
#X obj 232 226 line;
#X obj 162 275 *~ 0.5;
#X obj 162 327 outlet~;
#X obj 138 67 inlet;
#X msg 136 150 1000 \, 3000 500;
#X msg 231 198 0.5 \, 0 500;
#X connect 0 0 8 0;
#X connect 0 0 9 0;
#X connect 1 0 2 0;
#X connect 2 0 5 0;
#X connect 3 0 2 0;
#X connect 4 0 5 1;
#X connect 5 0 6 0;
#X connect 7 0 0 0;
#X connect 8 0 1 0;
#X connect 9 0 4 0;
#X restore 201 243 pd zip;
#N canvas 443 131 1324 787 bird 0;
#X msg 181 288 tempo \$1 permin;
#X obj 101 292 bng 19 250 50 0 empty empty empty 17 7 0 10 #dfdfdf #000000 #000000;
#X obj 102 175 bng 19 250 50 0 empty empty empty 0 -10 0 12 #fcfcfc #000000 #000000;
#X msg 134 199 stop;
#X obj 101 261 metro;
#N canvas 0 37 1470 891 sequencer 0;
#X obj 64 96 + 1;
#X floatatom 11 137 5 0 0 0 - - - 0;
#X obj 100 123 select 1;
#X obj 112 238 s seq2;
#X obj 163 238 s seq3;
#X obj 10 238 s seq0;
#X obj 61 238 s seq1;
#X obj 213 238 s seq4;
#X obj 264 238 s seq5;
#X obj 315 238 s seq6;
#X obj 366 238 s seq7;
#X obj 11 19 inlet;
#X obj 11 97 int 0;
#X obj 9 282 s seq8;
#X obj 60 282 s seq9;
#X obj 111 282 s seq10;
#X obj 171 282 s seq11;
#X obj 229 282 s seq12;
#X obj 288 282 s seq13;
#X obj 346 282 s seq14;
#X obj 404 282 s seq15;
#X obj 11 330 s seq16;
#X obj 70 330 s seq17;
#X obj 130 331 s seq18;
#X obj 189 331 s seq19;
#X obj 247 331 s seq20;
#X obj 306 330 s seq21;
#X obj 10 375 s seq23;
#X obj 69 375 s seq24;
#X obj 129 374 s seq25;
#X obj 188 375 s seq26;
#X obj 246 376 s seq27;
#X obj 305 377 s seq28;
#X obj 363 376 s seq29;
#X obj 364 331 s seq22;
#X obj 100 151 outlet;
#X obj 11 179 select 0 1 2 3 4 5 6 7 8 9 10 11 12 13 14 15 16 17 18 19 20 21 22 23 24 25 26 27 28 29 30 31, f 102;
#X obj 480 377 s seq31;
#X obj 421 376 s seq30;
#X obj 101 96 >= 31;
#X connect 0 0 12 1;
#X connect 1 0 36 0;
#X connect 2 0 35 0;
#X connect 11 0 12 0;
#X connect 12 0 0 0;
#X connect 12 0 1 0;
#X connect 12 0 39 0;
#X connect 36 0 5 0;
#X connect 36 1 6 0;
#X connect 36 2 3 0;
#X connect 36 3 4 0;
#X connect 36 4 7 0;
#X connect 36 5 8 0;
#X connect 36 6 9 0;
#X connect 36 7 10 0;
#X connect 36 8 13 0;
#X connect 36 9 14 0;
#X connect 36 10 15 0;
#X connect 36 11 16 0;
#X connect 36 12 17 0;
#X connect 36 13 18 0;
#X connect 36 14 19 0;
#X connect 36 15 20 0;
#X connect 36 16 21 0;
#X connect 36 17 22 0;
#X connect 36 18 23 0;
#X connect 36 19 24 0;
#X connect 36 20 25 0;
#X connect 36 21 26 0;
#X connect 36 22 34 0;
#X connect 36 23 27 0;
#X connect 36 24 28 0;
#X connect 36 25 29 0;
#X connect 36 26 30 0;
#X connect 36 27 31 0;
#X connect 36 28 32 0;
#X connect 36 29 33 0;
#X connect 36 30 38 0;
#X connect 36 31 37 0;
#X connect 39 0 2 0;
#X restore 102 358 pd sequencer;
#X msg 138 325 -1;
#X obj 212 262 * 4;
#X msg 212 230 120;
#X obj 135 170 bng 19 250 50 0 empty empty empty 0 -10 0 12 #fcfcfc #000000 #000000;
#X obj 338 171 r seq0;
#X obj 389 171 r seq1;
#X obj 440 171 r seq2;
#X obj 492 171 r seq3;
#X obj 543 171 r seq4;
#X obj 593 171 r seq5;
#X obj 643 171 r seq6;
#X obj 693 171 r seq7;
#X obj 743 171 r seq8;
#X obj 794 171 r seq9;
#X obj 845 171 r seq10;
#X obj 901 171 r seq11;
#X obj 958 171 r seq12;
#X obj 1014 171 r seq13;
#X obj 1070 171 r seq14;
#X obj 1126 171 r seq15;
#N canvas 303 239 1470 891 bird2 0;
#X obj 110 32 bng 19 250 50 0 empty empty empty 0 -10 0 12 #fcfcfc #000000 #000000;
#X obj 106 111 line~;
#X obj 106 135 osc~;
#X floatatom 53 100 5 0 0 0 - - - 0;
#X obj 200 149 line;
#X msg 197 112 0.5 \, 0 50;
#X obj 104 -1 inlet ~;
#X msg 101 77 7000 \, 1000 120;
#X obj 126 262 outlet~;
#X obj 127 199 *~ 0.05;
#X connect 0 0 5 0;
#X connect 0 0 7 0;
#X connect 1 0 2 0;
#X connect 2 0 9 0;
#X connect 3 0 2 0;
#X connect 4 0 9 1;
#X connect 5 0 4 0;
#X connect 6 0 0 0;
#X connect 7 0 1 0;
#X connect 9 0 8 0;
#X restore 599 421 pd bird2;
#X obj 336 224 r seq16;
#X obj 395 224 r seq17;
#X obj 455 225 r seq18;
#X obj 513 225 r seq19;
#X obj 572 225 r seq20;
#X obj 631 224 r seq21;
#X obj 688 225 r seq22;
#X obj 746 225 r seq23;
#X obj 805 225 r seq24;
#X obj 865 224 r seq25;
#X obj 924 224 r seq26;
#X obj 982 226 r seq27;
#X obj 1041 227 r seq28;
#X obj 1099 226 r seq29;
#X obj 1212 226 r seq31;
#X obj 1156 226 r seq30;
#N canvas 1111 430 639 415 bird1 0;
#X obj 110 30 bng 19 250 50 0 empty empty empty 0 -10 0 12 #fcfcfc #000000 #000000;
#X obj 106 111 line~;
#X obj 106 135 osc~;
#X floatatom 53 100 5 0 0 0 - - - 0;
#X obj 200 149 line;
#X msg 197 112 0.5 \, 0 50;
#X obj 110 -3 inlet ~;
#X msg 104 67 4000 \, 500 120;
#X obj 130 198 *~ 0.5;
#X obj 134 255 outlet~;
#X connect 0 0 5 0;
#X connect 0 0 7 0;
#X connect 1 0 2 0;
#X connect 2 0 8 0;
#X connect 3 0 2 0;
#X connect 4 0 8 1;
#X connect 5 0 4 0;
#X connect 6 0 0 0;
#X connect 7 0 1 0;
#X connect 8 0 9 0;
#X restore 470 420 pd bird1;
#X obj 102 102 inlet;
#X obj 549 493 outlet~;
#X connect 0 0 4 0;
#X connect 1 0 5 0;
#X connect 2 0 4 0;
#X connect 2 0 8 0;
#X connect 3 0 4 0;
#X connect 3 0 6 0;
#X connect 4 0 1 0;
#X connect 5 0 9 0;
#X connect 6 0 5 0;
#X connect 7 0 0 0;
#X connect 8 0 7 0;
#X connect 9 0 3 0;
#X connect 13 0 43 0;
#X connect 19 0 26 0;
#X connect 22 0 43 0;
#X connect 23 0 43 0;
#X connect 26 0 45 0;
#X connect 28 0 26 0;
#X connect 29 0 26 0;
#X connect 31 0 26 0;
#X connect 34 0 43 0;
#X connect 35 0 43 0;
#X connect 36 0 43 0;
#X connect 39 0 43 0;
#X connect 43 0 45 0;
#X connect 44 0 2 0;
#X restore 62 242 pd bird;
#N canvas 15 108 1850 984 rain 0;
#X obj 125 168 noise~;
#X obj 225 229 vline~;
#X obj 144 263 *~;
#X obj 247 137 bng 19 250 50 0 empty empty empty 0 -10 0 12 #fcfcfc #000000 #000000;
#X obj 129 211 bp~ 1500 1;
#X obj 247 85 inlet;
#X obj 144 326 outlet~;
#X msg 243 189 0 0 \, 0.2 1000 0 \, 0 7000 1000;
#X connect 0 0 4 0;
#X connect 1 0 2 1;
#X connect 2 0 6 0;
#X connect 3 0 7 0;
#X connect 4 0 2 0;
#X connect 5 0 3 0;
#X connect 7 0 1 0;
#X restore 134 242 pd rain;
#X obj 142 182 select 1 2 3 4;
#X obj 142 122 unpack 0 0;
#X text 104 121 type;
#X text 221 121 volume;
#N canvas 470 118 1440 787 breathe 0;
#X obj 92 362 *~;
#X obj 91 229 noise~;
#X floatatom 164 325 5 0 0 0 - - - 0;
#X floatatom 201 197 5 0 0 0 - - - 0;
#X obj 201 263 / 127;
#X obj 204 168 line;
#X obj 199 64 bng 19 250 50 0 empty empty empty 0 -10 0 12 #fcfcfc #000000 #000000;
#X msg 294 139 0 100;
#X obj 157 245 * 60;
#X obj 86 280 bp~ 5000 10;
#X msg 122 136 50 600;
#X obj 183 101 delay 600;
#X obj 199 22 inlet;
#X obj 92 407 outlet~;
#X msg 197 133 50 \, 100 1000;
#X obj 284 102 delay 1500;
#X connect 0 0 13 0;
#X connect 1 0 9 0;
#X connect 2 0 0 1;
#X connect 3 0 4 0;
#X connect 3 0 8 0;
#X connect 4 0 2 0;
#X connect 5 0 3 0;
#X connect 6 0 10 0;
#X connect 6 0 11 0;
#X connect 6 0 15 0;
#X connect 7 0 5 0;
#X connect 8 0 9 1;
#X connect 9 0 0 0;
#X connect 10 0 5 0;
#X connect 11 0 14 0;
#X connect 12 0 6 0;
#X connect 14 0 5 0;
#X connect 15 0 7 0;
#X restore 264 243 pd breathe;
#X connect 0 0 7 0;
#X connect 1 0 2 0;
#X connect 3 0 1 0;
#X connect 4 0 1 0;
#X connect 5 0 1 0;
#X connect 6 0 4 0;
#X connect 6 1 5 0;
#X connect 6 2 3 0;
#X connect 6 3 10 0;
#X connect 7 0 6 0;
#X connect 7 1 1 1;
#X connect 10 0 1 0;
