#N canvas 846 284 450 513 12;
#X obj 110 173 mtof;
#X obj 110 108 inlet;
#X obj 112 432 outlet~;
#N canvas 1142 170 450 501 stringVoice 1;
#X obj 115 232 phasor~;
#X obj 115 340 expr~ $v1 > $v2;
#X obj 221 309 +~ 0.5;
#X obj 221 281 *~ 0.4;
#X obj 117 131 sig~;
#X obj 115 206 +~;
#X floatatom 115 90 5 0 0 0 - - - 0;
#X obj 117 47 inlet;
#X obj 114 428 outlet~;
#X obj 179 131 osc~ 3;
#X obj 221 254 osc~ 1.5;
#X obj 179 157 *~ 0.7;
#X obj 115 388 -~ 0.5;
#X connect 0 0 1 0;
#X connect 1 0 12 0;
#X connect 2 0 1 1;
#X connect 3 0 2 0;
#X connect 4 0 5 0;
#X connect 5 0 0 0;
#X connect 6 0 4 0;
#X connect 7 0 6 0;
#X connect 9 0 11 0;
#X connect 10 0 3 0;
#X connect 11 0 5 1;
#X connect 12 0 8 0;
#X restore 111 216 pd stringVoice;
#X obj 110 142 unpack i i;
#X obj 112 403 *~;
#N canvas 826 264 450 300 att_rel_env 0;
#X obj 118 56 sel 0;
#X msg 118 100 0;
#X floatatom 354 115 5 0 0 0 - - - 0;
#X floatatom 192 101 5 0 0 0 - - - 0;
#X obj 115 187 line~;
#X obj 115 225 *~;
#X obj 95 11 inlet;
#X obj 113 261 outlet~;
#X obj 287 114 / 50;
#X obj 287 141 pack 0 50;
#X obj 118 138 pack 0 300;
#X connect 0 0 1 0;
#X connect 0 1 8 0;
#X connect 1 0 10 0;
#X connect 2 0 9 1;
#X connect 3 0 10 1;
#X connect 4 0 5 0;
#X connect 4 0 5 1;
#X connect 5 0 7 0;
#X connect 6 0 0 0;
#X connect 8 0 9 0;
#X connect 9 0 4 0;
#X connect 10 0 4 0;
#X restore 280 272 pd att_rel_env;
#X connect 0 0 3 0;
#X connect 1 0 4 0;
#X connect 3 0 5 0;
#X connect 4 0 0 0;
#X connect 4 1 6 0;
#X connect 5 0 2 0;
#X connect 6 0 5 1;
